<?xml version="1.0" encoding="UTF-8"?>
<svg width="257px" height="40px" viewBox="0 0 257 40" version="1.1" xmlns="http://www.w3.org/2000/svg" xmlns:xlink="http://www.w3.org/1999/xlink">
    <!-- Generator: sketchtool 61.2 (101010) - https://sketch.com -->
    <title>34C89312-6378-4195-BA53-C9E758A2240E</title>
    <desc>Created with sketchtool.</desc>
    <g id="Website-design-" stroke="none" stroke-width="1" fill="none" fill-rule="evenodd">
        <g id="Exponent_Landing_Page" transform="translate(-124.000000, -48.000000)" fill="#000000">
            <g id="Group-24" transform="translate(122.000000, 47.000000)">
                <g id="Group-2-Copy-3" transform="translate(29.343676, 21.000000) scale(-1, 1) translate(-29.343676, -21.000000) translate(0.843676, 0.000000)">
                    <path d="M21.4496181,3.89845703 L35.3505275,3.89845703 C36.4913235,3.89845703 37.4161213,4.82325489 37.4161213,5.96405085 L37.4161213,19.8649602 C37.4161213,21.0057562 36.4913235,21.930554 35.3505275,21.930554 L21.4496181,21.930554 C20.3088222,21.930554 19.3840243,21.0057562 19.3840243,19.8649602 L19.3840243,5.96405085 C19.3840243,4.82325489 20.3088222,3.89845703 21.4496181,3.89845703 Z" id="Rectangle-Copy" transform="translate(28.400073, 12.914506) rotate(-315.000000) translate(-28.400073, -12.914506) "></path>
                    <path d="M36.9351854,19.3840243 L50.8360948,19.3840243 C51.9768907,19.3840243 52.9016886,20.3088222 52.9016886,21.4496181 L52.9016886,35.3505275 C52.9016886,36.4913235 51.9768907,37.4161213 50.8360948,37.4161213 L36.9351854,37.4161213 C35.7943894,37.4161213 34.8695916,36.4913235 34.8695916,35.3505275 L34.8695916,21.4496181 C34.8695916,20.3088222 35.7943894,19.3840243 36.9351854,19.3840243 Z" id="Rectangle-Copy-2" transform="translate(43.885640, 28.400073) rotate(-315.000000) translate(-43.885640, -28.400073) "></path>
                    <path d="M5.96405085,19.3840243 L19.8649602,19.3840243 C21.0057562,19.3840243 21.930554,20.3088222 21.930554,21.4496181 L21.930554,35.3505275 C21.930554,36.4913235 21.0057562,37.4161213 19.8649602,37.4161213 L5.96405085,37.4161213 C4.82325489,37.4161213 3.89845703,36.4913235 3.89845703,35.3505275 L3.89845703,21.4496181 C3.89845703,20.3088222 4.82325489,19.3840243 5.96405085,19.3840243 Z" id="Rectangle-Copy-2" transform="translate(12.914506, 28.400073) rotate(-315.000000) translate(-12.914506, -28.400073) "></path>
                </g>
                <!-- <path d="M90.9961167,28.7674964 L90.9961167,25.1191194 L78.9167279,25.1191194 C78.7296089,25.1191194 78.5779189,24.9674294 78.5779189,24.7803104 L78.5779189,22.5635494 C78.5779189,22.3764303 78.7296089,22.2247403 78.9167279,22.2247403 L90.1728108,22.2247403 L90.1728108,22.2247403 L90.1728108,19.0141686 L78.9167279,19.0141686 C78.7296089,19.0141686 78.5779189,18.8624786 78.5779189,18.6753596 L78.5779189,16.5315661 C78.5779189,16.344447 78.7296089,16.192757 78.9167279,16.192757 L90.9961167,16.192757 L90.9961167,16.192757 L90.9961167,12.54438 L82.4886221,12.54438 L75.3754032,12.54438 C74.605366,12.54438 73.9811274,13.1686186 73.9811274,13.9386559 L73.9811274,27.3732206 C73.9811274,28.1432579 74.605366,28.7674964 75.3754032,28.7674964 L90.9961167,28.7674964 L90.9961167,28.7674964 Z M100.626308,28.5313487 L105.054354,23.5080322 C105.301823,23.2272953 105.730019,23.2003264 106.010756,23.4477956 C106.032453,23.4669215 106.052903,23.4874169 106.071981,23.5091561 L110.478345,28.5301924 C110.61071,28.6810215 110.801651,28.7674964 111.002324,28.7674964 L117.04435,28.7674964 L117.04435,28.7674964 L109.785253,21.0931836 C109.544479,20.8386378 109.537467,20.4425147 109.769081,20.1796067 L116.49548,12.54438 L116.49548,12.54438 L110.828024,12.54438 C110.622356,12.54438 110.427184,12.6351948 110.294724,12.7925271 L106.129128,17.7403142 C105.8881,18.0266005 105.460628,18.06329 105.174342,17.8222624 C105.144336,17.7970005 105.116581,17.769181 105.091388,17.7391173 L100.947292,12.7937585 C100.814834,12.63569 100.619188,12.54438 100.412958,12.54438 L94.5406547,12.54438 L94.5406547,12.54438 L101.332731,20.1807321 C101.565897,20.4428808 101.560407,20.8396525 101.320078,21.0952498 L94.1061321,28.7674964 L94.1061321,28.7674964 L100.103346,28.7674964 C100.303482,28.7674964 100.493966,28.6814821 100.626308,28.5313487 Z M125.071332,28.7674964 L125.071332,25.4270971 C125.071332,25.0420785 125.383451,24.7299592 125.768469,24.7299592 L132.298128,24.7299592 L132.298128,24.7299592 C132.465839,24.7299592 132.614491,24.734013 132.744085,24.7421205 L132.880033,24.7488767 C132.974899,24.75248 133.078236,24.7542817 133.190043,24.7542817 C134.318277,24.7542817 135.248308,24.6529379 135.980135,24.4502503 C136.711963,24.2475627 137.295138,23.9070475 137.72966,23.4287047 C138.164183,22.950362 138.465299,22.3139229 138.63301,21.5193874 C138.80072,20.724852 138.884576,19.727629 138.884576,18.5277183 C138.884576,17.4088827 138.793097,16.4562509 138.61014,15.669823 C138.427183,14.8833951 138.068893,14.230741 137.535269,13.7118607 C137.001644,13.1929804 136.346049,12.8646265 135.568482,12.7267989 C134.790916,12.5889713 133.853262,12.5200575 132.75552,12.5200575 L120.383062,12.5200575 L120.383062,28.7674964 L125.071332,28.7674964 Z M125.071332,20.4411431 L125.071332,16.8088736 C125.071332,16.6163643 125.227391,16.4603047 125.419901,16.4603047 L132.20665,16.4603047 L132.20665,16.4603047 C132.999463,16.4603047 133.533087,16.634616 133.807522,16.9832387 C134.081958,17.3318614 134.219175,17.895333 134.219175,18.6736534 C134.219175,19.4844038 134.066711,20.0397679 133.761783,20.3397456 C133.456855,20.6397232 132.938477,20.789712 132.20665,20.789712 L125.419901,20.789712 C125.227391,20.789712 125.071332,20.6336524 125.071332,20.4411431 Z M152.136877,28.937754 C153.646272,28.937754 154.968897,28.9174852 156.104755,28.8769477 C157.240612,28.8364102 158.227817,28.7391201 159.066369,28.5850776 C159.904921,28.431035 160.602445,28.1999711 161.158938,27.8918859 C161.715432,27.5838008 162.16139,27.154103 162.496811,26.6027927 C162.832231,26.0514824 163.068551,25.3663983 163.205768,24.5475403 C163.342986,23.7286824 163.411595,22.7274056 163.411595,21.54371 C163.411595,20.5708094 163.407783,19.7195215 163.40016,18.9898461 C163.392537,18.2601707 163.358232,17.6683228 163.297247,17.2143026 C163.190522,16.3386921 162.999942,15.5928017 162.725507,14.9766314 C162.451071,14.360461 162.073723,13.8618495 161.593461,13.4807968 C161.113199,13.0997441 160.522401,12.8200352 159.821066,12.6416701 C159.119732,12.463305 158.288802,12.3741224 157.328279,12.3741224 C154.400969,12.3741224 152.033964,12.3862837 150.227265,12.4106062 C148.420566,12.4349287 147.174172,12.51195 146.488084,12.6416701 C145.481821,12.8362502 144.708066,13.1564966 144.166819,13.6024094 C143.625571,14.0483221 143.229165,14.6523312 142.977599,15.4144366 C142.726033,16.176542 142.581192,17.1129588 142.543076,18.2236869 C142.50496,19.334415 142.485902,20.659992 142.485902,22.2004178 C142.485902,23.7894887 142.668859,25.0339906 143.034773,25.9339236 C143.400687,26.8338566 143.972427,27.5067795 144.749994,27.9526922 C145.52756,28.398605 146.5262,28.6742601 147.745913,28.7796577 C148.965625,28.8850552 150.42928,28.937754 152.136877,28.937754 Z M152.698171,24.9481111 L152.182617,24.9488618 C151.389804,24.9488618 150.71515,24.9407543 150.158656,24.9245393 C149.602162,24.9083243 149.137147,24.8515718 148.76361,24.7542817 C148.390073,24.6569917 148.100391,24.5110566 147.894565,24.3164765 C147.688738,24.1218964 147.536274,23.8381337 147.437173,23.4651885 C147.338071,23.0922433 147.277086,22.622008 147.254216,22.0544827 C147.231346,21.4869574 147.219911,20.789712 147.219911,19.9627466 C147.219911,18.9736311 147.31139,18.2277406 147.494347,17.7250754 C147.677304,17.2224101 148.035594,16.8697337 148.569218,16.667046 C149.102843,16.4643584 149.865163,16.3630146 150.856179,16.3630146 L150.856179,16.3630146 L154.744013,16.3630146 C155.628305,16.3630146 156.337262,16.3954446 156.870887,16.4603047 C157.404511,16.5251647 157.808541,16.6913686 158.082976,16.9589162 C158.357411,17.2264639 158.536557,17.6318391 158.620412,18.1750419 C158.704267,18.7182447 158.746195,19.4600813 158.746195,20.4005518 C158.746195,21.5518175 158.700455,22.4395892 158.608977,23.063867 C158.517498,23.6881449 158.262121,24.1381114 157.842845,24.4137665 C157.423569,24.6894217 156.771785,24.847518 155.887493,24.8880555 C155.003202,24.9285931 153.768243,24.9488618 152.182617,24.9488618 L152.698171,24.9481111 Z M172.272932,28.4286874 L172.272932,17.0887334 C172.272932,16.9951739 172.348777,16.9193289 172.442336,16.9193289 C172.495559,16.9193289 172.545688,16.9443414 172.577692,16.9868667 L181.025307,28.2116297 C181.288714,28.5616322 181.701295,28.7674964 182.139342,28.7674964 L188.830529,28.7674964 L188.830529,28.7674964 L188.830529,12.54438 L184.439564,12.54438 L184.439564,24.1996287 C184.439564,24.2931882 184.363719,24.3690332 184.270159,24.3690332 C184.216994,24.3690332 184.166912,24.3440742 184.134902,24.3016253 L175.687219,13.0991774 C175.423759,12.7498041 175.011565,12.54438 174.573989,12.54438 L167.881967,12.54438 L167.881967,12.54438 L167.881967,28.7674964 L171.934123,28.7674964 C172.121242,28.7674964 172.272932,28.6158064 172.272932,28.4286874 Z M210.590326,28.7674964 L210.590326,25.1191194 L198.510937,25.1191194 C198.323818,25.1191194 198.172128,24.9674294 198.172128,24.7803104 L198.172128,22.5635494 C198.172128,22.3764303 198.323818,22.2247403 198.510937,22.2247403 L209.76702,22.2247403 L209.76702,22.2247403 L209.76702,19.0141686 L198.510937,19.0141686 C198.323818,19.0141686 198.172128,18.8624786 198.172128,18.6753596 L198.172128,16.5315661 C198.172128,16.344447 198.323818,16.192757 198.510937,16.192757 L210.590326,16.192757 L210.590326,16.192757 L210.590326,12.54438 L194.969612,12.54438 C194.199575,12.54438 193.575336,13.1686186 193.575336,13.9386559 L193.575336,27.3732206 C193.575336,28.1432579 194.199575,28.7674964 194.969612,28.7674964 L201.76512,28.7674964 L201.76512,28.7674964 L210.590326,28.7674964 Z M219.840446,28.7674964 L219.840446,17.0887334 C219.840446,16.9951739 219.916291,16.9193289 220.00985,16.9193289 C220.063073,16.9193289 220.113202,16.9443414 220.145206,16.9868667 L228.592821,28.2116297 C228.856228,28.5616322 229.268809,28.7674964 229.706856,28.7674964 L236.398043,28.7674964 L236.398043,28.7674964 L236.398043,12.54438 L232.007078,12.54438 L232.007078,24.1996287 C232.007078,24.2931882 231.931233,24.3690332 231.837673,24.3690332 C231.784508,24.3690332 231.734426,24.3440742 231.702416,24.3016253 L223.254733,13.0991774 C222.991273,12.7498041 222.579079,12.54438 222.141503,12.54438 L215.449481,12.54438 L215.449481,12.54438 L215.449481,28.7674964 L219.840446,28.7674964 Z M251.937306,28.7674964 L251.937306,16.9450488 C251.937306,16.7579297 252.088996,16.6062398 252.276115,16.6062398 L258.312402,16.6062398 C258.504911,16.6062398 258.660971,16.4501801 258.660971,16.2576708 L258.660971,12.54438 L258.660971,12.54438 L240.411023,12.54438 L240.411023,16.2576708 C240.411023,16.4501801 240.567082,16.6062398 240.759592,16.6062398 L246.910227,16.6062398 C247.097346,16.6062398 247.249036,16.7579297 247.249036,16.9450488 L247.249036,28.7674964 L247.249036,28.7674964 L251.937306,28.7674964 Z" id="EXPONENT-Copy-3" fill-rule="nonzero"></path> -->
            </g>
        </g>
    </g>
</svg>